Coordinates
version=1
nRows=9
nColumns=24
inDegrees=yes

Units are S.I. units (second, meters, Newtons, ...)
Angles are in degrees.

endheader
time	pelvis_tilt	pelvis_list	pelvis_rotation	pelvis_tx	pelvis_ty	pelvis_tz	hip_flexion_r	hip_adduction_r	hip_rotation_r	knee_angle_r	ankle_angle_r	subtalar_angle_r	mtp_angle_r	hip_flexion_l	hip_adduction_l	hip_rotation_l	knee_angle_l	ankle_angle_l	subtalar_angle_l	mtp_angle_l	lumbar_extension	lumbar_bending	lumbar_rotation
      4.69000000	     -5.34420015	      0.21856382	     -0.99175822	      0.97304517	      1.04823098	     -0.21174227	    -11.78152492	      5.44938478	     -4.14247699	      8.11335474	      1.88689546	    -19.52615478	      0.00000000	     26.97750370	      0.92234888	      1.38666206	    -16.71445051	      5.58926537	    -13.65349033	      0.00000000	    -10.03316426	     -3.36179015	      3.53752616
      4.70000000	     -5.15003840	     -0.12468449	     -1.30413720	      0.99049234	      1.04622861	     -0.21133543	    -12.97405755	      5.77281623	     -4.20323084	      8.01758307	      2.12033955	    -18.98096602	      0.00000000	     26.58484370	      0.52683303	      2.29447410	    -12.82245850	      4.97273985	    -12.82786160	      0.00000000	    -10.20228495	     -3.17249428	      3.93745853
      4.71000000	     -4.89899466	     -0.63238899	     -1.62425872	      1.00807039	      1.04427355	     -0.21105243	    -14.10012727	      6.21836420	     -4.42962479	      7.65633088	      2.58893039	    -17.92915787	      0.00000000	     26.08765957	     -0.04577469	      3.49957567	     -9.13663616	      3.92371216	    -12.87192941	      0.00000000	    -10.43844680	     -2.77700737	      4.37016483
      4.72000000	     -4.50206077	     -1.15742935	     -1.98906736	      1.02580991	      1.04255026	     -0.21082783	    -15.29306359	      6.59905217	     -4.50813500	      7.10063856	      3.00366448	    -16.93130839	      0.00000000	     25.44402755	     -0.69431941	      4.54123210	     -5.80983168	      2.97116502	    -13.10122834	      0.00000000	    -10.84546501	     -2.37349272	      4.91147217
      4.73000000	     -4.01059689	     -1.69372412	     -2.34512312	      1.04367688	      1.04110155	     -0.21074868	    -16.48345059	      6.92051951	     -4.54137751	      6.33866117	      3.35787560	    -15.84778988	      0.00000000	     24.74791743	     -1.36856282	      5.21623660	     -2.92543798	      2.11312082	    -13.36851854	      0.00000000	    -11.37068029	     -1.95806301	      5.46696371
      4.74000000	     -3.41429896	     -2.14602625	     -2.67238349	      1.06169485	      1.04001733	     -0.21086215	    -17.70112360	      7.08363863	     -4.38854043	      5.42224813	      3.43428562	    -15.04818763	      0.00000000	     24.03337782	     -1.92392584	      5.11340457	     -0.58802133	      1.55654665	    -13.18581687	      0.00000000	    -12.01287780	     -1.63731954	      5.99193208
      4.75000000	     -2.81350127	     -2.59109705	     -2.95785995	      1.07991265	      1.03923077	     -0.21122173	    -18.76102228	      7.19501342	     -4.55216902	      4.21706791	      3.72247067	    -13.63355925	      0.00000000	     23.36291193	     -2.39527206	      4.66950298	      1.23255618	      1.32124171	    -13.01204611	      0.00000000	    -12.63894607	     -1.29966150	      6.51703810
      4.76000000	     -2.13796834	     -2.86698370	     -3.19736451	      1.09843515	      1.03879817	     -0.21181766	    -19.83848616	      7.08346138	     -4.43976369	      2.91903678	      3.53743455	    -12.83644227	      0.00000000	     22.67323296	     -2.59802064	      3.60972446	      2.50302159	      1.30547745	    -12.64079651	      0.00000000	    -13.29848114	     -1.13724099	      6.94819384
      4.77000000	     -1.45619462	     -3.04773529	     -3.39084788	      1.11729364	      1.03863545	     -0.21261848	    -20.78411460	      6.85293934	     -4.46142189	      1.39379811	      3.24685640	    -12.01530552	      0.00000000	     22.02887930	     -2.61797716	      2.29449462	      3.20517369	      1.66053500	    -12.13082147	      0.00000000	    -13.90024537	     -1.05679605	      7.34752319
